<svg width="255" height="232" fill="none" xmlns="http://www.w3.org/2000/svg"><path d="M236.659 179.085c11.603-7.754 19.934-21.532 18.016-35.328a64.41 64.41 0 0 1-39.457 19.819c-5.821.656-12.363.781-16.449 4.967-2.542 2.605-3.588 6.378-3.597 10.012-.01 3.635.911 7.201 1.827 10.72l-.203.884c13.949-.692 28.261-3.321 39.863-11.074z" fill="#F0F0F0"/><path d="M254.382 143.757a54.882 54.882 0 0 1-21.494 26.067 23.674 23.674 0 0 1-6.744 3.088 13.618 13.618 0 0 1-7.147-.182c-2.179-.606-4.338-1.477-6.627-1.544a8.33 8.33 0 0 0-6.248 2.685c-2.031 2.094-3.186 4.792-4.225 7.47-1.152 2.972-2.302 6.078-4.699 8.3-.29.269.146.703.436.434 4.169-3.865 4.555-9.986 7.814-14.45 1.521-2.082 3.681-3.721 6.345-3.823 2.33-.089 4.557.807 6.758 1.439 2.257.713 4.654.863 6.982.438a21.915 21.915 0 0 0 6.838-2.817 53.311 53.311 0 0 0 12.729-10.747 55.764 55.764 0 0 0 9.877-16.202c.145-.367-.451-.52-.595-.156z" fill="#fff"/><path d="M236.141 168.005a8.261 8.261 0 0 0 10.545 1.717c.339-.205.035-.74-.304-.534a7.66 7.66 0 0 1-9.806-1.617c-.255-.302-.689.134-.435.434zM220.061 173.182a15.848 15.848 0 0 1 4.986-10.436c.289-.27-.147-.704-.436-.434a16.48 16.48 0 0 0-5.165 10.87c-.028.395.588.392.615 0zM248.517 155.069a4.65 4.65 0 0 1-1.79-4.044c.032-.394-.584-.392-.616 0a5.213 5.213 0 0 0 1.971 4.478.32.32 0 0 0 .435 0 .307.307 0 0 0 0-.434z" fill="#fff"/><path d="M214.441 118.977c-.027.246-.054.492-.086.74a61.107 61.107 0 0 1-1.946 9.761c-.066.248-.137.498-.211.744a64.628 64.628 0 0 1-10.882 21.195 62.919 62.919 0 0 1-6.419 7.077c-3.199 3.029-6.91 6.059-8.862 9.853-.208.394-.391.8-.549 1.216l10.244 20.281c.046.035.088.072.135.106l.372.829.384-.321c.075-.061.146-.126.221-.186.048-.042.097-.084.143-.119l.044-.039c.047-.035.086-.073.128-.105.727-.621 1.452-1.248 2.173-1.881.005-.002.005-.002.007-.009 5.485-4.839 10.613-10.176 14.766-16.12.125-.179.254-.36.374-.548a59.861 59.861 0 0 0 4.884-8.482 52.826 52.826 0 0 0 2.023-4.967 43.95 43.95 0 0 0 2.422-13.562c.177-9.209-2.601-18.372-8.88-24.964a37.691 37.691 0 0 0-.485-.499z" fill="#F0F0F0"/><path d="M214.206 119.153a54.716 54.716 0 0 1-1.425 33.719 23.63 23.63 0 0 1-3.521 6.515 13.595 13.595 0 0 1-5.817 4.146c-2.106.825-4.355 1.425-6.223 2.747a8.295 8.295 0 0 0-3.368 5.894c-.357 2.893.349 5.741 1.136 8.502.875 3.065 1.832 6.236 1.259 9.449-.069.389.541.474.61.085.996-5.59-2.391-10.709-2.483-16.23-.044-2.576.691-5.181 2.757-6.862 1.806-1.471 4.126-2.092 6.265-2.909a14.496 14.496 0 0 0 5.839-3.842 21.808 21.808 0 0 0 3.759-6.356 53.078 53.078 0 0 0 3.676-16.224 55.702 55.702 0 0 0-1.894-18.868c-.106-.379-.675-.143-.57.234z" fill="#fff"/><path d="M214.28 149.467c1.91.425 3.91.16 5.642-.749a8.238 8.238 0 0 0 3.814-4.213c.146-.367-.419-.612-.565-.244a7.627 7.627 0 0 1-3.551 3.922 7.66 7.66 0 0 1-5.255.676c-.386-.088-.469.52-.085.608zM204.566 163.255a15.833 15.833 0 0 1-2.32-11.326c.068-.39-.541-.475-.609-.086-.703 4.093.167 8.3 2.438 11.781.216.332.706-.04.491-.369zM216.352 131.706a4.678 4.678 0 0 1-3.871-2.154c-.212-.334-.702.038-.491.37a5.241 5.241 0 0 0 4.276 2.392.318.318 0 0 0 .348-.262.309.309 0 0 0-.262-.346z" fill="#fff"/><path d="M.15 205.139c.857-8.96 6.153-17.917 14.607-21.067a41.369 41.369 0 0 0 .821 28.462c1.414 3.502 3.352 7.25 2.22 10.853-.703 2.241-2.533 3.993-4.602 5.115-2.07 1.122-4.385 1.695-6.672 2.257l-.442.386C2.192 223.023-.705 214.1.151 205.139z" fill="#F0F0F0"/><path d="M14.847 184.239a35.393 35.393 0 0 0-8.259 20.194 15.226 15.226 0 0 0 .312 4.773 8.753 8.753 0 0 0 2.3 3.997c1.014 1.049 2.174 2.006 2.915 3.283a5.356 5.356 0 0 1 .388 4.367c-.57 1.796-1.753 3.28-2.96 4.691-1.341 1.566-2.759 3.173-3.29 5.214-.063.247-.444.133-.38-.114.922-3.551 4.293-5.65 5.837-8.869.72-1.502.99-3.23.23-4.772-.664-1.349-1.86-2.336-2.896-3.39a9.34 9.34 0 0 1-2.394-3.825 14.072 14.072 0 0 1-.494-4.743c.181-3.6.93-7.15 2.216-10.519a36.059 36.059 0 0 1 6.203-10.577c.165-.195.435.096.272.29z" fill="#fff"/><path d="M6.626 202.03a5.331 5.331 0 0 1-3.113-1.953 5.309 5.309 0 0 1-1.104-3.499.198.198 0 0 1 .203-.188.198.198 0 0 1 .195.196 4.915 4.915 0 0 0 1.028 3.257 4.936 4.936 0 0 0 2.905 1.807c.25.052.136.432-.114.38zM8.614 212.738a10.253 10.253 0 0 0 4.418-6.032c.066-.248.447-.134.382.113a10.662 10.662 0 0 1-4.61 6.268c-.217.137-.405-.213-.19-.349zM10.2 191.039a3.032 3.032 0 0 0 2.855-.227c.215-.139.402.211.189.349a3.388 3.388 0 0 1-3.158.258.207.207 0 0 1-.134-.247.2.2 0 0 1 .248-.133z" fill="#fff"/><path d="M39.531 199.275c-.131.091-.263.182-.395.276-1.765 1.23-1.714 2.604-3.256 4.102-.121.114-.242.231-.36.348a41.792 41.792 0 0 0-8.74 12.681 40.487 40.487 0 0 0-2.063 5.814c-.744 2.744-1.331 5.779-2.895 8.051-.16.239-.335.468-.524.685l-14.709.421c-.034-.016-.068-.028-.102-.044l-.586.044c.02-.105.044-.213.064-.317.012-.061.027-.121.039-.182a1.92 1.92 0 0 0 .023-.118c.003-.013.006-.027.01-.037.005-.037.014-.071.02-.104.13-.604.265-1.207.405-1.811 0-.003 0-.003.003-.007a59.591 59.591 0 0 1 4.654-13.324c.064-.125.127-.254.197-.38a38.735 38.735 0 0 1 3.335-5.375 34.333 34.333 0 0 1 2.21-2.672 28.535 28.535 0 0 1 6.988-5.54c5.196-2.929 9.562-4.168 15.25-2.632.145.039.287.079.432.121z" fill="#F0F0F0"/><path d="M39.504 199.462c-7.207 1.641-12.224 5.589-17.075 11.166a15.248 15.248 0 0 0-2.632 3.998 8.73 8.73 0 0 0-.577 4.571c.176 1.448.525 2.908.345 4.373a5.348 5.348 0 0 1-2.326 3.72c-1.539 1.091-3.38 1.566-5.195 1.967-2.017.446-4.118.877-5.774 2.189-.2.159-.436-.161-.235-.32 2.88-2.281 6.839-1.933 10.015-3.577 1.482-.767 2.74-1.984 3.065-3.671.283-1.476-.075-2.982-.266-4.446a9.319 9.319 0 0 1 .397-4.491 14.082 14.082 0 0 1 2.468-4.084 34.458 34.458 0 0 1 8.12-7.068c3.479-2.205 5.61-3.806 9.628-4.721.249-.057.29.338.042.394z" fill="#fff"/><path d="M23.91 208.732a5.31 5.31 0 0 1-.076-6.886c.164-.196.477.049.313.245a4.92 4.92 0 0 0 .083 6.406c.17.192-.152.426-.32.235zM19.033 218.475a10.3 10.3 0 0 0 7.17-2.163c.2-.159.436.161.235.319a10.71 10.71 0 0 1-7.464 2.236c-.256-.021-.195-.413.06-.392zM33.399 202.101a3.02 3.02 0 0 0 2.416 1.534c.256.018.194.41-.06.392a3.38 3.38 0 0 1-2.677-1.69.205.205 0 0 1 .043-.278.2.2 0 0 1 .278.042zM183.638.853h-10.062a7.43 7.43 0 0 1-.717 6.97 7.461 7.461 0 0 1-2.687 2.42 7.488 7.488 0 0 1-3.513.875h-44.157a7.484 7.484 0 0 1-6.2-3.295 7.442 7.442 0 0 1-.717-6.97h-9.397c-4.17 0-8.17 1.652-11.119 4.593a15.662 15.662 0 0 0-4.606 11.09v198.763a15.649 15.649 0 0 0 4.606 11.09 15.732 15.732 0 0 0 11.119 4.593h77.45a15.762 15.762 0 0 0 11.119-4.593 15.693 15.693 0 0 0 3.408-5.088 15.634 15.634 0 0 0 1.197-6.002V16.535a15.677 15.677 0 0 0-4.605-11.09A15.737 15.737 0 0 0 183.638.854z" fill="#fff"/><path d="M183.638 231.835h-77.45a16.621 16.621 0 0 1-11.718-4.849 16.533 16.533 0 0 1-4.862-11.687V16.535A16.532 16.532 0 0 1 94.47 4.85 16.62 16.62 0 0 1 106.188 0h10.67l-.481 1.175a6.58 6.58 0 0 0 .635 6.172 6.625 6.625 0 0 0 5.49 2.918h44.157a6.61 6.61 0 0 0 6.581-5.925 6.599 6.599 0 0 0-.455-3.165L172.304 0h11.334a16.622 16.622 0 0 1 11.718 4.849 16.533 16.533 0 0 1 4.861 11.686V215.3a16.533 16.533 0 0 1-4.861 11.687 16.623 16.623 0 0 1-11.718 4.849zm-77.45-230.13a14.907 14.907 0 0 0-10.51 4.35 14.827 14.827 0 0 0-4.36 10.48V215.3a14.825 14.825 0 0 0 4.36 10.481 14.906 14.906 0 0 0 10.51 4.349h77.45a14.91 14.91 0 0 0 10.509-4.348 14.825 14.825 0 0 0 4.36-10.482V16.535a14.823 14.823 0 0 0-4.36-10.48 14.907 14.907 0 0 0-10.509-4.35h-8.888a8.286 8.286 0 0 1-1.545 7.093 8.346 8.346 0 0 1-6.546 3.172h-44.157a8.35 8.35 0 0 1-3.638-.836 8.32 8.32 0 0 1-4.497-5.705 8.27 8.27 0 0 1 .045-3.723h-8.224z" fill="#E4E4E4"/><path d="M184.218 31.4h-23.355a.989.989 0 1 1 0-1.976h23.355a.99.99 0 0 1 .917 1.367.992.992 0 0 1-.917.609zM184.218 35.833h-23.355a.989.989 0 1 1 0-1.976h23.355a.99.99 0 0 1 .917 1.366.992.992 0 0 1-.917.61zM184.218 40.265h-23.355a.99.99 0 0 1-.7-1.686.99.99 0 0 1 .7-.29h23.355a.99.99 0 0 1 .917 1.367.992.992 0 0 1-.917.609z" fill="#F57C00"/><path d="M66.092 227.519h3.913l1.862-15.054H66.09v15.054z" fill="#FFB6B6"/><path d="M65.094 226.245H72.8a4.92 4.92 0 0 1 3.474 1.434 4.894 4.894 0 0 1 1.438 3.464v.159H65.094v-5.057z" fill="#2F2E41"/><path d="m50.792 223.887 3.69 1.295 6.768-13.583-5.448-1.912-5.01 14.2z" fill="#FFB6B6"/><path d="m50.274 222.354 7.27 2.552a4.907 4.907 0 0 1 2.798 2.503 4.886 4.886 0 0 1 .205 3.743l-.053.15-11.903-4.177 1.683-4.771zM48.466 140.019l-2.37 2.574 9.577 39.757 9.84 38.772h7.866l-4.525-37v-38.051l-20.388-6.052z" fill="#2F2E41"/><path d="m72.945 143.208 1.037 3.85-5.541 34.337-7.869 36.385h-8.909l6.69-44.613 8.173-32.838 6.419 2.879z" fill="#2F2E41"/><path d="m77.842 86.16-3.463-6.2-8.216-1.341a20.767 20.767 0 0 0-10.506 6.602 20.676 20.676 0 0 0-4.847 11.401l-4.455 45.503s22.794 10.463 27.627 4.572l6.721-51.649a10.184 10.184 0 0 0-2.86-8.887z" fill="#3F3D56"/><path d="M72.004 76.608c4.814 0 8.718-3.893 8.718-8.695 0-4.802-3.904-8.695-8.718-8.695-4.815 0-8.718 3.893-8.718 8.695 0 4.802 3.903 8.695 8.718 8.695z" fill="#FFB6B6"/><path d="M83.456 63.173a2.158 2.158 0 0 1-1.277-.98 2.08 2.08 0 0 1-.01-2.122 3.164 3.164 0 0 0-2.616-.133 2.973 2.973 0 0 0 1.008-2.51l-3.139 1.06a2.3 2.3 0 0 0 .792-2.54c-.86 1.22-2.637 1.384-4.087 1.02-1.45-.364-2.788-1.127-4.265-1.357a6.072 6.072 0 0 0-4.665 1.211 6.044 6.044 0 0 0-2.3 4.225 2.269 2.269 0 0 0-1.77 1.294 4.836 4.836 0 0 0-.418 2.23 11.92 11.92 0 0 0 1.305 5.253 11.952 11.952 0 0 0 3.495 4.14l.482-.166a3.841 3.841 0 0 1 .918-2.712 3.861 3.861 0 0 1 2.542-1.33c1.278-.08 2.788.43 3.7-.466.836-.82.537-2.29 1.219-3.24.592-.828 1.771-1.021 2.771-.823 1 .198 1.91.703 2.881 1.013.971.31 2.109.396 2.944-.187a2.975 2.975 0 0 0 1.114-2.295c.01-.178.008-.357-.004-.535a2.323 2.323 0 0 1-.62-.05z" fill="#2F2E41"/><path d="M115.031 144.359H25.255v25.928h89.776v-25.928z" fill="#fff"/><path d="M115.847 171.101H24.439v-27.556h91.408v27.556zm-89.776-1.628h88.144v-24.3H26.071v24.3z" fill="#E4E4E4"/><path d="M97.592 153.275H42.694a1.164 1.164 0 0 1-1.164-1.161 1.16 1.16 0 0 1 1.164-1.161h54.898a1.16 1.16 0 1 1 0 2.322zM97.592 158.484H42.694a1.162 1.162 0 0 1 0-2.322h54.898a1.166 1.166 0 0 1 1.162 1.161 1.162 1.162 0 0 1-1.162 1.161zM75.371 163.693H42.694a1.164 1.164 0 0 1-1.164-1.161 1.16 1.16 0 0 1 1.164-1.161h32.677a1.16 1.16 0 1 1 0 2.322z" fill="#F57C00"/><path d="M78.768 147.599a3.2 3.2 0 0 1-.713-3.836c.213-.417.515-.782.885-1.069l-3.674-10.77 5.736 1.491 2.61 9.998a3.214 3.214 0 0 1-.558 4.239 3.231 3.231 0 0 1-4.286-.053z" fill="#FFB6B6"/><path d="m76.23 140.421-5.947-21.925-.521-26.71a5.039 5.039 0 0 1 .941-3.056 5.06 5.06 0 0 1 2.593-1.879 5.105 5.105 0 0 1 4.65.8 5.083 5.083 0 0 1 1.995 4.267l-.958 21.017 4.718 25.088-7.472 2.398z" fill="#3F3D56"/><path d="M57.286 148.236a3.2 3.2 0 0 1-.713-3.836c.213-.417.516-.782.886-1.07l-3.675-10.769 5.736 1.491 2.61 9.998a3.212 3.212 0 0 1-.558 4.239 3.237 3.237 0 0 1-4.286-.053z" fill="#FFB6B6"/><path d="M53.844 139.399 51.3 116.856l3.556-26.508a5.07 5.07 0 0 1 2.021-3.412 5.098 5.098 0 0 1 5.758-.201 5.086 5.086 0 0 1 2.256 3.262c.138.667.14 1.355.006 2.022l-4.147 20.629.844 25.512-7.75 1.239z" fill="#3F3D56"/><path d="M247.995 218.142H110.562v-31.544h137.433v31.544z" fill="#fff"/><path d="M130.397 197.028a1.335 1.335 0 1 0 0 2.671h97.769c.355 0 .695-.141.945-.392a1.332 1.332 0 0 0 0-1.887c-.25-.25-.59-.391-.945-.392h-97.769zM130.397 205.041a1.335 1.335 0 1 0-.006 2.671h61.811a1.33 1.33 0 0 0 .948-.39 1.32 1.32 0 0 0 .291-1.457 1.332 1.332 0 0 0-1.239-.824h-61.805z" fill="#E6E6E6"/><path d="M247.995 218.142H110.562v-31.544h137.433v31.544zm-135.174-2.253h132.915v-27.038H112.821v27.038z" fill="#E5E5E5"/><path d="M31.434 127.419a5.749 5.749 0 0 1-3.189-.965 5.72 5.72 0 0 1-2.44-5.875 5.717 5.717 0 0 1 1.57-2.93 5.741 5.741 0 0 1 6.255-1.241 5.736 5.736 0 0 1 2.575 2.108 5.713 5.713 0 0 1-.714 7.227 5.747 5.747 0 0 1-4.057 1.676zM57.616 46.316a6.345 6.345 0 0 1-3.519-1.065 6.32 6.32 0 0 1-2.333-2.834 6.3 6.3 0 0 1 1.373-6.884 6.339 6.339 0 0 1 6.902-1.369 6.33 6.33 0 0 1 2.843 2.326 6.305 6.305 0 0 1-.788 7.976 6.334 6.334 0 0 1-4.478 1.85zM220.976 91.461a5.458 5.458 0 0 1-3.026-.915 5.432 5.432 0 0 1-2.316-5.577 5.425 5.425 0 0 1 1.491-2.781 5.451 5.451 0 0 1 5.936-1.178 5.441 5.441 0 0 1 2.444 2.001 5.418 5.418 0 0 1-.677 6.86 5.456 5.456 0 0 1-3.852 1.59z" fill="#F0F0F0"/><path d="M186.492 56.834h-83.488v62.877h83.488V56.834z" fill="#fff"/><path d="M187.585 120.801h-85.674V55.744h85.674v65.057zm-83.488-2.18h81.301V57.925h-81.301v60.696z" fill="#E4E4E4"/><path d="M185.543 58.119h-81.118l81.118 60.981V58.119z" fill="#F0F0F0"/><path d="M232.493 231.326c-2.43 0-4.806-.719-6.826-2.066a12.248 12.248 0 0 1-5.225-12.579 12.247 12.247 0 0 1 3.363-6.274 12.297 12.297 0 0 1 6.291-3.354 12.32 12.32 0 0 1 7.099.698 12.277 12.277 0 0 1 5.514 4.513 12.23 12.23 0 0 1-1.528 15.473 12.302 12.302 0 0 1-8.688 3.589z" fill="#F57C00"/><path d="M237.341 217.863h-3.636v-3.626a1.209 1.209 0 0 0-1.212-1.209 1.213 1.213 0 0 0-1.212 1.209v3.626h-3.636a1.212 1.212 0 0 0-1.21 1.209 1.212 1.212 0 0 0 1.21 1.209h3.636v3.626a1.209 1.209 0 0 0 1.212 1.209 1.209 1.209 0 0 0 1.212-1.209v-3.626h3.636a1.22 1.22 0 0 0 1.122-.746 1.206 1.206 0 0 0-.657-1.581 1.238 1.238 0 0 0-.465-.091z" fill="#fff"/></svg>